<?xml version="1.0" encoding="UTF-8" standalone="no"?><!-- Generator: Gravit.io --><svg xmlns="http://www.w3.org/2000/svg" xmlns:xlink="http://www.w3.org/1999/xlink" style="isolation:isolate" viewBox="0 0 128 128" width="128pt" height="128pt"><path d=" M 12.553 62.936 L 1.844 62.936 C 1.359 62.936 0.885 62.746 0.537 62.399 C 0.19 62.051 0 61.587 0 61.092 C 0 60.608 0.19 60.134 0.537 59.786 C 0.885 59.449 1.359 59.249 1.844 59.249 L 43.91 59.249 L 53.56 34.586 L 71.427 75.978 L 77.801 59.249 L 112.378 59.249 C 112.391 59.213 112.404 59.178 112.419 59.143 C 114.125 55.056 115.01 50.673 115.042 46.249 C 115.053 38.411 112.04 30.857 106.635 25.168 C 104.159 22.534 101.199 20.396 97.912 18.879 C 94.762 17.414 91.328 16.635 87.851 16.624 C 83.932 16.635 80.076 17.667 76.663 19.606 C 74.704 20.722 72.892 22.071 71.259 23.619 C 68.456 26.285 66.086 29.382 64.253 32.795 C 61.83 29.382 59.006 26.264 55.835 23.525 C 54.013 21.944 52.022 20.554 49.915 19.384 C 48.145 18.394 46.259 17.625 44.3 17.098 C 42.582 16.635 40.813 16.392 39.043 16.392 C 35.671 16.413 32.363 17.277 29.424 18.9 C 27.918 19.721 26.495 20.701 25.189 21.818 C 23.841 22.977 22.608 24.252 21.491 25.632 C 19.195 28.487 17.383 31.71 16.129 35.155 C 14.875 38.537 14.222 42.108 14.191 45.711 C 14.191 47.523 14.38 49.335 14.77 51.105 C 14.928 51.79 14.802 52.506 14.422 53.096 C 14.043 53.686 13.453 54.097 12.768 54.245 C 12.084 54.403 11.378 54.276 10.788 53.897 C 10.198 53.518 9.776 52.928 9.629 52.243 C 9.155 50.094 8.923 47.892 8.923 45.69 C 8.955 41.476 9.713 37.294 11.188 33.343 C 12.631 29.35 14.728 25.632 17.393 22.334 C 18.71 20.701 20.174 19.184 21.765 17.825 C 23.346 16.466 25.063 15.286 26.885 14.285 C 30.604 12.231 34.776 11.146 39.032 11.125 C 41.276 11.125 43.509 11.42 45.68 12.01 C 48.05 12.653 50.326 13.58 52.475 14.781 C 54.898 16.129 57.184 17.73 59.291 19.542 C 60.882 20.922 62.399 22.387 63.831 23.935 C 65.001 22.471 66.265 21.091 67.624 19.806 C 69.573 17.952 71.733 16.35 74.061 15.023 C 78.264 12.631 83.016 11.367 87.851 11.357 C 92.097 11.378 96.29 12.315 100.135 14.096 C 104.022 15.897 107.52 18.426 110.459 21.544 C 116.791 28.213 120.32 37.073 120.309 46.27 C 120.282 50.703 119.512 55.088 118.028 59.249 L 126.156 59.249 C 126.641 59.249 127.115 59.449 127.463 59.786 C 127.81 60.134 128 60.608 128 61.092 C 128 61.587 127.81 62.051 127.463 62.399 C 127.115 62.746 126.641 62.936 126.156 62.936 L 80.34 62.936 L 71.638 85.765 L 53.728 44.279 L 46.428 62.936 L 18.345 62.936 C 20.415 67.278 22.763 71.481 25.389 75.525 C 28.434 80.182 31.858 84.575 35.64 88.652 C 39.675 92.992 44.057 96.985 48.745 100.599 C 53.581 104.317 58.659 107.71 63.947 110.765 C 68.33 108.015 72.597 105.065 76.716 101.926 C 80.993 98.671 85.08 95.184 88.957 91.465 C 92.655 87.935 96.121 84.185 99.355 80.224 C 102.463 76.41 105.318 72.386 107.899 68.193 C 108.268 67.592 108.858 67.171 109.532 67.013 C 110.217 66.844 110.933 66.96 111.523 67.329 C 112.124 67.698 112.545 68.277 112.714 68.962 C 112.872 69.636 112.756 70.353 112.387 70.953 C 109.68 75.346 106.688 79.56 103.432 83.553 C 100.072 87.683 96.448 91.591 92.602 95.278 C 88.578 99.124 84.343 102.737 79.908 106.119 C 74.83 109.985 69.531 113.578 64.063 116.875 C 57.584 113.325 51.39 109.269 45.532 104.77 C 40.612 100.978 36.019 96.785 31.784 92.244 C 27.791 87.935 24.178 83.311 20.975 78.391 C 17.815 73.524 15.023 68.414 12.631 63.126 C 12.603 63.063 12.577 63 12.553 62.936 Z " fill="rgb(244,82,0)"/></svg>