<?xml version="1.0" encoding="UTF-8" standalone="no"?><!-- Generator: Gravit.io --><svg xmlns="http://www.w3.org/2000/svg" xmlns:xlink="http://www.w3.org/1999/xlink" style="isolation:isolate" viewBox="0 0 128 128" width="128pt" height="128pt"><g><path d=" M 106.771 70.522 C 107.202 72.147 107.569 73.79 107.878 75.445 C 108.646 79.707 109.036 84.024 109.025 88.351 C 109.003 93.738 108.495 99.104 107.521 104.394 C 106.959 107.488 106.277 110.561 105.477 113.611 C 104.579 117.008 103.562 120.373 102.426 123.705 C 102.188 124.386 102.231 125.133 102.556 125.771 C 102.87 126.42 103.432 126.907 104.103 127.145 C 104.784 127.372 105.531 127.329 106.169 127.004 C 106.818 126.69 107.305 126.139 107.543 125.457 L 107.543 125.457 L 107.543 125.457 C 108.722 122.006 109.771 118.512 110.702 114.985 C 111.546 111.805 112.26 108.603 112.844 105.357 C 113.872 99.753 114.402 94.074 114.434 88.373 C 114.445 83.71 114.034 79.058 113.201 74.471 C 112.454 70.469 111.394 66.531 110.009 62.701 C 108.765 59.272 107.316 55.929 105.682 52.673 C 104.211 49.752 102.675 46.863 101.074 44.008 C 100.003 42.093 98.953 40.156 97.936 38.209 C 97.006 36.435 96.162 34.628 95.394 32.778 C 94.702 31.08 94.139 29.338 93.717 27.553 C 93.328 25.855 93.122 24.124 93.112 22.371 C 93.133 19.667 93.62 16.973 94.561 14.431 C 95.113 12.884 95.784 11.38 96.563 9.93 C 97.482 8.221 98.499 6.566 99.624 4.976 C 100.035 4.392 100.197 3.656 100.068 2.953 C 99.949 2.25 99.548 1.622 98.964 1.2 C 98.38 0.789 97.644 0.627 96.941 0.757 C 96.238 0.876 95.611 1.276 95.199 1.86 C 93.955 3.623 92.819 5.463 91.803 7.367 C 90.894 9.043 90.115 10.785 89.477 12.581 C 88.33 15.718 87.735 19.028 87.703 22.36 C 87.713 24.524 87.962 26.677 88.449 28.786 C 88.936 30.853 89.585 32.876 90.396 34.845 C 91.229 36.846 92.138 38.804 93.144 40.719 C 94.183 42.709 95.254 44.689 96.357 46.647 C 96.649 47.17 96.939 47.695 97.223 48.223 C 92.45 50.04 87.54 51.458 82.531 52.478 C 76.657 53.668 70.686 54.274 64.692 54.274 C 58.58 54.263 52.49 53.657 46.485 52.478 C 41.161 51.424 35.92 49.981 30.809 48.164 C 31.083 47.655 31.362 47.151 31.643 46.647 C 32.746 44.689 33.817 42.709 34.856 40.719 C 35.862 38.804 36.771 36.846 37.604 34.845 C 38.415 32.876 39.064 30.853 39.551 28.786 C 40.038 26.677 40.287 24.524 40.297 22.36 C 40.265 19.028 39.67 15.718 38.523 12.581 C 37.885 10.785 37.106 9.043 36.197 7.367 C 35.181 5.463 34.045 3.623 32.801 1.86 C 32.389 1.276 31.762 0.876 31.059 0.757 C 30.356 0.627 29.62 0.789 29.036 1.2 C 28.452 1.622 28.051 2.25 27.932 2.953 C 27.803 3.656 27.965 4.392 28.376 4.976 L 28.376 4.976 L 28.376 4.976 C 29.501 6.566 30.518 8.221 31.437 9.93 C 32.216 11.38 32.887 12.884 33.45 14.431 C 34.38 16.973 34.867 19.667 34.888 22.371 C 34.878 24.124 34.672 25.855 34.283 27.553 C 33.861 29.338 33.298 31.08 32.606 32.778 C 31.838 34.628 30.994 36.435 30.064 38.209 C 29.047 40.156 27.997 42.093 26.926 44.008 C 25.325 46.863 23.789 49.752 22.318 52.673 C 20.684 55.929 19.235 59.272 17.991 62.701 C 16.606 66.531 15.546 70.469 14.799 74.471 C 13.966 79.058 13.555 83.71 13.566 88.373 C 13.598 94.074 14.128 99.753 15.156 105.357 C 15.74 108.603 16.454 111.805 17.298 114.985 C 18.229 118.512 19.278 122.006 20.457 125.457 C 20.695 126.139 21.182 126.69 21.831 127.004 C 22.469 127.329 23.216 127.372 23.897 127.145 C 24.579 126.907 25.13 126.42 25.444 125.771 C 25.769 125.133 25.812 124.386 25.574 123.705 C 24.438 120.373 23.421 117.008 22.523 113.611 C 21.723 110.561 21.041 107.488 20.479 104.394 C 19.505 99.104 18.997 93.738 18.975 88.351 C 18.964 84.024 19.354 79.707 20.122 75.445 C 20.428 73.804 20.791 72.176 21.218 70.565 L 21.218 70.565 C 24.532 71.779 27.789 73.172 30.961 74.72 C 34.564 76.484 38.069 78.42 41.477 80.529 C 45.047 82.736 48.53 85.073 51.927 87.54 C 55.327 90.022 58.68 92.569 61.977 95.192 L 61.977 124.581 C 61.977 125.079 62.183 125.565 62.529 125.922 C 62.886 126.279 63.373 126.474 63.87 126.474 C 64.368 126.474 64.855 126.279 65.212 125.922 C 65.569 125.565 65.763 125.079 65.763 124.581 L 65.763 124.581 L 65.763 95.302 C 69.096 92.641 72.496 90.056 75.954 87.54 C 79.34 85.073 82.824 82.736 86.394 80.529 C 89.801 78.42 93.306 76.484 96.909 74.72 C 100.119 73.154 103.416 71.745 106.771 70.522 Z  M 105.711 66.881 C 105.469 66.095 105.204 65.315 104.925 64.54 C 103.746 61.317 102.394 58.168 100.857 55.107 C 100.263 53.932 99.658 52.76 99.047 51.59 L 99.047 51.59 L 99.047 51.59 C 93.927 53.548 88.656 55.089 83.289 56.189 C 77.166 57.433 70.934 58.06 64.692 58.06 C 58.331 58.049 51.992 57.422 45.761 56.2 C 40.059 55.061 34.447 53.505 28.979 51.538 C 28.36 52.726 27.746 53.914 27.143 55.107 C 25.606 58.168 24.254 61.317 23.075 64.54 C 22.791 65.329 22.522 66.123 22.275 66.923 C 25.805 68.204 29.252 69.669 32.627 71.312 C 36.338 73.13 39.962 75.131 43.467 77.306 C 47.113 79.567 50.683 81.957 54.145 84.478 C 57.467 86.89 60.728 89.371 63.935 91.923 C 67.144 89.371 70.413 86.89 73.725 84.478 C 77.187 81.957 80.757 79.567 84.403 77.306 C 87.919 75.131 91.532 73.13 95.243 71.312 C 98.656 69.651 102.142 68.172 105.711 66.881 Z  M 61.707 45.609 C 61.707 43.22 62.677 41.281 63.871 41.281 C 65.065 41.281 66.035 43.22 66.035 45.609 C 66.035 47.997 65.065 49.936 63.871 49.936 C 62.677 49.936 61.707 47.997 61.707 45.609 L 61.707 45.609 L 61.707 45.609 L 61.707 45.609 L 61.707 45.609 Z " fill-rule="evenodd" fill="rgb(244,82,0)"/><path d=" M 21.625 23.702 L 1.893 23.702 C 1.396 23.702 0.909 23.507 0.552 23.15 C 0.195 22.793 0 22.306 0 21.809 C 0 21.311 0.195 20.824 0.552 20.467 C 0.909 20.11 1.396 19.916 1.893 19.916 L 21.625 19.916 L 19.992 18.282 C 19.635 17.925 19.44 17.438 19.44 16.941 C 19.44 16.443 19.635 15.956 19.992 15.599 C 20.349 15.242 20.825 15.047 21.333 15.047 C 21.831 15.047 22.318 15.242 22.664 15.599 L 28.874 21.809 L 22.664 28.018 C 22.318 28.375 21.831 28.57 21.333 28.57 C 20.825 28.57 20.349 28.375 19.992 28.018 C 19.635 27.661 19.44 27.175 19.44 26.677 C 19.44 26.179 19.635 25.692 19.992 25.335 L 21.625 23.702 Z " fill-rule="evenodd" fill="rgb(244,82,0)"/><path d=" M 106.375 19.916 L 126.107 19.916 C 126.604 19.916 127.091 20.11 127.448 20.467 C 127.805 20.824 128 21.311 128 21.809 C 128 22.306 127.805 22.793 127.448 23.15 C 127.091 23.507 126.604 23.702 126.107 23.702 L 106.375 23.702 L 108.008 25.335 C 108.365 25.692 108.56 26.179 108.56 26.677 C 108.56 27.175 108.365 27.661 108.008 28.018 C 107.651 28.375 107.175 28.57 106.667 28.57 C 106.169 28.57 105.682 28.375 105.336 28.018 L 99.126 21.809 L 105.336 15.599 C 105.682 15.242 106.169 15.047 106.667 15.047 C 107.175 15.047 107.651 15.242 108.008 15.599 C 108.365 15.956 108.56 16.443 108.56 16.941 C 108.56 17.438 108.365 17.925 108.008 18.282 L 106.375 19.916 Z " fill-rule="evenodd" fill="rgb(244,82,0)"/></g></svg>