<?xml version="1.0" encoding="UTF-8" standalone="no"?><!-- Generator: Gravit.io --><svg xmlns="http://www.w3.org/2000/svg" xmlns:xlink="http://www.w3.org/1999/xlink" style="isolation:isolate" viewBox="0 0 374.984 366.102" width="374.984pt" height="366.102pt"><defs><clipPath id="_clipPath_3AD1dSeNL1gb0eNmzUKvkc2CQNTq5VI1"><rect width="374.984" height="366.102"/></clipPath></defs><g clip-path="url(#_clipPath_3AD1dSeNL1gb0eNmzUKvkc2CQNTq5VI1)"><g><path d=" M 374.984 91.716 Q 301.275 -3.066 182.175 0.102 C 88.19 2.602 36.841 75.655 22.689 103.594 C 3.69 141.102 -3.587 194.936 1.652 222.713 C 7.794 255.276 16.913 274.826 22.689 293.378 Q 33.19 327.102 18.654 366.102 Q 50.69 341.602 63.69 321.64 Q 76.704 301.655 71.989 274.102 Q 58.432 242.267 55.615 220.759 C 52.19 194.602 56.257 152.555 75.69 125.555 C 100.839 90.614 126.16 65.871 182.175 65.102 Q 255.023 64.102 309.832 138.651 L 374.984 91.716 Z " fill="rgb(255,84,0)"/><path d=" M 309.837 321.64 Q 309.932 202.83 309.837 185.102 C 309.69 157.602 285.272 123.814 261.582 107.101 C 233.067 86.984 216.851 79.786 186.69 78.618 C 126.871 76.302 90.368 117.524 75.69 154.065 C 63.357 184.769 67.023 217.13 73.123 236.345 C 77.505 250.15 88.189 259.391 88.69 287.84 C 89.023 306.769 74.357 329.435 78.686 334.815 C 83.25 340.486 120.218 303.421 169.69 299.016 C 230.69 293.584 259.628 325.844 266.992 321.64 C 274.357 317.435 277.039 320.407 278.034 306.036 C 279.69 282.102 279.023 225.435 278.034 211.27 C 277.419 202.473 276.295 199.265 266.992 195.684 C 257.69 192.102 231.165 188.663 222.69 187.102 C 210.782 184.909 194.023 180.687 188.69 177.261 C 183.357 173.834 178.661 172.289 182.175 165.689 C 185.69 159.089 206.361 167.769 219.908 170.102 C 228.545 171.59 258.341 174.843 269.749 177.261 C 278.44 179.102 285.697 182.311 289.69 187.102 Q 293.44 191.602 295.091 203.114 L 295.091 332.192 L 309.837 321.64 Z " fill="rgb(255,84,0)"/></g></g></svg>